<mxfile host="app.diagrams.net" agent="Mozilla/5.0 (Windows NT 10.0; Win64; x64) AppleWebKit/537.36 (KHTML, like Gecko) Chrome/131.0.0.0 Safari/537.36" version="25.0.1">
  <diagram name="Page-1" id="TcLztlPbTyp62aw8VujW">
    <mxGraphModel dx="1195" dy="615" grid="1" gridSize="10" guides="1" tooltips="1" connect="1" arrows="1" fold="1" page="1" pageScale="1" pageWidth="850" pageHeight="1100" math="0" shadow="0">
      <root>
        <mxCell id="0" />
        <mxCell id="1" parent="0" />
        <mxCell id="wPyV7EjvyFOrCt24FmBM-58" value="" style="group;opacity=80;" vertex="1" connectable="0" parent="1">
          <mxGeometry x="50" y="120" width="180" height="240" as="geometry" />
        </mxCell>
        <mxCell id="wPyV7EjvyFOrCt24FmBM-2" value="FactOrders" style="shape=table;startSize=30;container=1;collapsible=1;childLayout=tableLayout;fixedRows=1;rowLines=0;fontStyle=1;align=center;resizeLast=1;html=1;opacity=80;" vertex="1" parent="wPyV7EjvyFOrCt24FmBM-58">
          <mxGeometry width="180" height="240" as="geometry" />
        </mxCell>
        <mxCell id="wPyV7EjvyFOrCt24FmBM-3" value="" style="shape=tableRow;horizontal=0;startSize=0;swimlaneHead=0;swimlaneBody=0;fillColor=none;collapsible=0;dropTarget=0;points=[[0,0.5],[1,0.5]];portConstraint=eastwest;top=0;left=0;right=0;bottom=1;opacity=80;" vertex="1" parent="wPyV7EjvyFOrCt24FmBM-2">
          <mxGeometry y="30" width="180" height="30" as="geometry" />
        </mxCell>
        <mxCell id="wPyV7EjvyFOrCt24FmBM-4" value="PK" style="shape=partialRectangle;connectable=0;fillColor=none;top=0;left=0;bottom=0;right=0;fontStyle=1;overflow=hidden;whiteSpace=wrap;html=1;opacity=80;" vertex="1" parent="wPyV7EjvyFOrCt24FmBM-3">
          <mxGeometry width="30" height="30" as="geometry">
            <mxRectangle width="30" height="30" as="alternateBounds" />
          </mxGeometry>
        </mxCell>
        <mxCell id="wPyV7EjvyFOrCt24FmBM-5" value="FactOrderID" style="shape=partialRectangle;connectable=0;fillColor=none;top=0;left=0;bottom=0;right=0;align=left;spacingLeft=6;fontStyle=5;overflow=hidden;whiteSpace=wrap;html=1;opacity=80;" vertex="1" parent="wPyV7EjvyFOrCt24FmBM-3">
          <mxGeometry x="30" width="150" height="30" as="geometry">
            <mxRectangle width="150" height="30" as="alternateBounds" />
          </mxGeometry>
        </mxCell>
        <mxCell id="wPyV7EjvyFOrCt24FmBM-6" value="" style="shape=tableRow;horizontal=0;startSize=0;swimlaneHead=0;swimlaneBody=0;fillColor=none;collapsible=0;dropTarget=0;points=[[0,0.5],[1,0.5]];portConstraint=eastwest;top=0;left=0;right=0;bottom=0;opacity=80;" vertex="1" parent="wPyV7EjvyFOrCt24FmBM-2">
          <mxGeometry y="60" width="180" height="30" as="geometry" />
        </mxCell>
        <mxCell id="wPyV7EjvyFOrCt24FmBM-7" value="" style="shape=partialRectangle;connectable=0;fillColor=none;top=0;left=0;bottom=0;right=0;editable=1;overflow=hidden;whiteSpace=wrap;html=1;opacity=80;" vertex="1" parent="wPyV7EjvyFOrCt24FmBM-6">
          <mxGeometry width="30" height="30" as="geometry">
            <mxRectangle width="30" height="30" as="alternateBounds" />
          </mxGeometry>
        </mxCell>
        <mxCell id="wPyV7EjvyFOrCt24FmBM-8" value="&lt;b&gt;UserID&lt;/b&gt;" style="shape=partialRectangle;connectable=0;fillColor=none;top=0;left=0;bottom=0;right=0;align=left;spacingLeft=6;overflow=hidden;whiteSpace=wrap;html=1;opacity=80;" vertex="1" parent="wPyV7EjvyFOrCt24FmBM-6">
          <mxGeometry x="30" width="150" height="30" as="geometry">
            <mxRectangle width="150" height="30" as="alternateBounds" />
          </mxGeometry>
        </mxCell>
        <mxCell id="wPyV7EjvyFOrCt24FmBM-9" value="" style="shape=tableRow;horizontal=0;startSize=0;swimlaneHead=0;swimlaneBody=0;fillColor=none;collapsible=0;dropTarget=0;points=[[0,0.5],[1,0.5]];portConstraint=eastwest;top=0;left=0;right=0;bottom=0;opacity=80;" vertex="1" parent="wPyV7EjvyFOrCt24FmBM-2">
          <mxGeometry y="90" width="180" height="30" as="geometry" />
        </mxCell>
        <mxCell id="wPyV7EjvyFOrCt24FmBM-10" value="" style="shape=partialRectangle;connectable=0;fillColor=none;top=0;left=0;bottom=0;right=0;editable=1;overflow=hidden;whiteSpace=wrap;html=1;opacity=80;" vertex="1" parent="wPyV7EjvyFOrCt24FmBM-9">
          <mxGeometry width="30" height="30" as="geometry">
            <mxRectangle width="30" height="30" as="alternateBounds" />
          </mxGeometry>
        </mxCell>
        <mxCell id="wPyV7EjvyFOrCt24FmBM-11" value="&lt;b&gt;OrderID&lt;/b&gt;" style="shape=partialRectangle;connectable=0;fillColor=none;top=0;left=0;bottom=0;right=0;align=left;spacingLeft=6;overflow=hidden;whiteSpace=wrap;html=1;opacity=80;" vertex="1" parent="wPyV7EjvyFOrCt24FmBM-9">
          <mxGeometry x="30" width="150" height="30" as="geometry">
            <mxRectangle width="150" height="30" as="alternateBounds" />
          </mxGeometry>
        </mxCell>
        <mxCell id="wPyV7EjvyFOrCt24FmBM-12" value="" style="shape=tableRow;horizontal=0;startSize=0;swimlaneHead=0;swimlaneBody=0;fillColor=none;collapsible=0;dropTarget=0;points=[[0,0.5],[1,0.5]];portConstraint=eastwest;top=0;left=0;right=0;bottom=0;opacity=80;" vertex="1" parent="wPyV7EjvyFOrCt24FmBM-2">
          <mxGeometry y="120" width="180" height="30" as="geometry" />
        </mxCell>
        <mxCell id="wPyV7EjvyFOrCt24FmBM-13" value="" style="shape=partialRectangle;connectable=0;fillColor=none;top=0;left=0;bottom=0;right=0;editable=1;overflow=hidden;whiteSpace=wrap;html=1;opacity=80;" vertex="1" parent="wPyV7EjvyFOrCt24FmBM-12">
          <mxGeometry width="30" height="30" as="geometry">
            <mxRectangle width="30" height="30" as="alternateBounds" />
          </mxGeometry>
        </mxCell>
        <mxCell id="wPyV7EjvyFOrCt24FmBM-14" value="&lt;b&gt;TotalPrice&lt;/b&gt;" style="shape=partialRectangle;connectable=0;fillColor=none;top=0;left=0;bottom=0;right=0;align=left;spacingLeft=6;overflow=hidden;whiteSpace=wrap;html=1;opacity=80;" vertex="1" parent="wPyV7EjvyFOrCt24FmBM-12">
          <mxGeometry x="30" width="150" height="30" as="geometry">
            <mxRectangle width="150" height="30" as="alternateBounds" />
          </mxGeometry>
        </mxCell>
        <mxCell id="wPyV7EjvyFOrCt24FmBM-29" value="FK" style="shape=partialRectangle;connectable=0;fillColor=none;top=0;left=0;bottom=0;right=0;fontStyle=1;overflow=hidden;whiteSpace=wrap;html=1;opacity=80;" vertex="1" parent="wPyV7EjvyFOrCt24FmBM-58">
          <mxGeometry y="60" width="30" height="30" as="geometry">
            <mxRectangle width="30" height="30" as="alternateBounds" />
          </mxGeometry>
        </mxCell>
        <mxCell id="wPyV7EjvyFOrCt24FmBM-30" value="" style="shape=tableRow;horizontal=0;startSize=0;swimlaneHead=0;swimlaneBody=0;fillColor=none;collapsible=0;dropTarget=0;points=[[0,0.5],[1,0.5]];portConstraint=eastwest;top=0;left=0;right=0;bottom=0;opacity=80;" vertex="1" parent="wPyV7EjvyFOrCt24FmBM-58">
          <mxGeometry y="150" width="180" height="30" as="geometry" />
        </mxCell>
        <mxCell id="wPyV7EjvyFOrCt24FmBM-31" value="" style="shape=partialRectangle;connectable=0;fillColor=none;top=0;left=0;bottom=0;right=0;editable=1;overflow=hidden;whiteSpace=wrap;html=1;opacity=80;" vertex="1" parent="wPyV7EjvyFOrCt24FmBM-30">
          <mxGeometry width="30" height="30" as="geometry">
            <mxRectangle width="30" height="30" as="alternateBounds" />
          </mxGeometry>
        </mxCell>
        <mxCell id="wPyV7EjvyFOrCt24FmBM-32" value="&lt;b&gt;OrderDate&lt;/b&gt;" style="shape=partialRectangle;connectable=0;fillColor=none;top=0;left=0;bottom=0;right=0;align=left;spacingLeft=6;overflow=hidden;whiteSpace=wrap;html=1;opacity=80;" vertex="1" parent="wPyV7EjvyFOrCt24FmBM-30">
          <mxGeometry x="30" width="150" height="30" as="geometry">
            <mxRectangle width="150" height="30" as="alternateBounds" />
          </mxGeometry>
        </mxCell>
        <mxCell id="wPyV7EjvyFOrCt24FmBM-33" value="" style="shape=tableRow;horizontal=0;startSize=0;swimlaneHead=0;swimlaneBody=0;fillColor=none;collapsible=0;dropTarget=0;points=[[0,0.5],[1,0.5]];portConstraint=eastwest;top=0;left=0;right=0;bottom=0;opacity=80;" vertex="1" parent="wPyV7EjvyFOrCt24FmBM-58">
          <mxGeometry y="180" width="180" height="30" as="geometry" />
        </mxCell>
        <mxCell id="wPyV7EjvyFOrCt24FmBM-34" value="" style="shape=partialRectangle;connectable=0;fillColor=none;top=0;left=0;bottom=0;right=0;editable=1;overflow=hidden;whiteSpace=wrap;html=1;opacity=80;" vertex="1" parent="wPyV7EjvyFOrCt24FmBM-33">
          <mxGeometry width="30" height="30" as="geometry">
            <mxRectangle width="30" height="30" as="alternateBounds" />
          </mxGeometry>
        </mxCell>
        <mxCell id="wPyV7EjvyFOrCt24FmBM-35" value="&lt;b&gt;TotalQuantity&lt;/b&gt;" style="shape=partialRectangle;connectable=0;fillColor=none;top=0;left=0;bottom=0;right=0;align=left;spacingLeft=6;overflow=hidden;whiteSpace=wrap;html=1;opacity=80;" vertex="1" parent="wPyV7EjvyFOrCt24FmBM-33">
          <mxGeometry x="30" width="150" height="30" as="geometry">
            <mxRectangle width="150" height="30" as="alternateBounds" />
          </mxGeometry>
        </mxCell>
        <mxCell id="wPyV7EjvyFOrCt24FmBM-56" value="FK" style="shape=partialRectangle;connectable=0;fillColor=none;top=0;left=0;bottom=0;right=0;fontStyle=1;overflow=hidden;whiteSpace=wrap;html=1;opacity=80;" vertex="1" parent="wPyV7EjvyFOrCt24FmBM-58">
          <mxGeometry y="90" width="30" height="30" as="geometry">
            <mxRectangle width="30" height="30" as="alternateBounds" />
          </mxGeometry>
        </mxCell>
        <mxCell id="wPyV7EjvyFOrCt24FmBM-57" value="" style="endArrow=none;html=1;rounded=0;exitX=0.167;exitY=0.002;exitDx=0;exitDy=0;exitPerimeter=0;opacity=80;" edge="1" parent="wPyV7EjvyFOrCt24FmBM-58" source="wPyV7EjvyFOrCt24FmBM-30">
          <mxGeometry relative="1" as="geometry">
            <mxPoint x="30" y="151" as="sourcePoint" />
            <mxPoint x="30" y="240" as="targetPoint" />
          </mxGeometry>
        </mxCell>
        <mxCell id="wPyV7EjvyFOrCt24FmBM-59" value="&lt;div&gt;&lt;span style=&quot;background-color: initial;&quot;&gt;&lt;b&gt;QuantitySold&lt;/b&gt;&lt;/span&gt;&lt;/div&gt;" style="shape=partialRectangle;connectable=0;fillColor=none;top=0;left=0;bottom=0;right=0;align=left;spacingLeft=6;overflow=hidden;whiteSpace=wrap;html=1;opacity=80;" vertex="1" parent="wPyV7EjvyFOrCt24FmBM-58">
          <mxGeometry x="30" y="209" width="150" height="30" as="geometry">
            <mxRectangle width="150" height="30" as="alternateBounds" />
          </mxGeometry>
        </mxCell>
        <mxCell id="wPyV7EjvyFOrCt24FmBM-60" value="" style="group;opacity=80;" vertex="1" connectable="0" parent="1">
          <mxGeometry x="360" y="310" width="180" height="240" as="geometry" />
        </mxCell>
        <mxCell id="wPyV7EjvyFOrCt24FmBM-61" value="FactSales" style="shape=table;startSize=30;container=1;collapsible=1;childLayout=tableLayout;fixedRows=1;rowLines=0;fontStyle=1;align=center;resizeLast=1;html=1;opacity=80;" vertex="1" parent="wPyV7EjvyFOrCt24FmBM-60">
          <mxGeometry width="180" height="210" as="geometry" />
        </mxCell>
        <mxCell id="wPyV7EjvyFOrCt24FmBM-62" value="" style="shape=tableRow;horizontal=0;startSize=0;swimlaneHead=0;swimlaneBody=0;fillColor=none;collapsible=0;dropTarget=0;points=[[0,0.5],[1,0.5]];portConstraint=eastwest;top=0;left=0;right=0;bottom=1;opacity=80;" vertex="1" parent="wPyV7EjvyFOrCt24FmBM-61">
          <mxGeometry y="30" width="180" height="30" as="geometry" />
        </mxCell>
        <mxCell id="wPyV7EjvyFOrCt24FmBM-63" value="PK" style="shape=partialRectangle;connectable=0;fillColor=none;top=0;left=0;bottom=0;right=0;fontStyle=1;overflow=hidden;whiteSpace=wrap;html=1;opacity=80;" vertex="1" parent="wPyV7EjvyFOrCt24FmBM-62">
          <mxGeometry width="30" height="30" as="geometry">
            <mxRectangle width="30" height="30" as="alternateBounds" />
          </mxGeometry>
        </mxCell>
        <mxCell id="wPyV7EjvyFOrCt24FmBM-64" value="FactSaleID" style="shape=partialRectangle;connectable=0;fillColor=none;top=0;left=0;bottom=0;right=0;align=left;spacingLeft=6;fontStyle=5;overflow=hidden;whiteSpace=wrap;html=1;opacity=80;" vertex="1" parent="wPyV7EjvyFOrCt24FmBM-62">
          <mxGeometry x="30" width="150" height="30" as="geometry">
            <mxRectangle width="150" height="30" as="alternateBounds" />
          </mxGeometry>
        </mxCell>
        <mxCell id="wPyV7EjvyFOrCt24FmBM-65" value="" style="shape=tableRow;horizontal=0;startSize=0;swimlaneHead=0;swimlaneBody=0;fillColor=none;collapsible=0;dropTarget=0;points=[[0,0.5],[1,0.5]];portConstraint=eastwest;top=0;left=0;right=0;bottom=0;opacity=80;" vertex="1" parent="wPyV7EjvyFOrCt24FmBM-61">
          <mxGeometry y="60" width="180" height="30" as="geometry" />
        </mxCell>
        <mxCell id="wPyV7EjvyFOrCt24FmBM-66" value="" style="shape=partialRectangle;connectable=0;fillColor=none;top=0;left=0;bottom=0;right=0;editable=1;overflow=hidden;whiteSpace=wrap;html=1;opacity=80;" vertex="1" parent="wPyV7EjvyFOrCt24FmBM-65">
          <mxGeometry width="30" height="30" as="geometry">
            <mxRectangle width="30" height="30" as="alternateBounds" />
          </mxGeometry>
        </mxCell>
        <mxCell id="wPyV7EjvyFOrCt24FmBM-67" value="&lt;b&gt;UserID&lt;/b&gt;" style="shape=partialRectangle;connectable=0;fillColor=none;top=0;left=0;bottom=0;right=0;align=left;spacingLeft=6;overflow=hidden;whiteSpace=wrap;html=1;opacity=80;" vertex="1" parent="wPyV7EjvyFOrCt24FmBM-65">
          <mxGeometry x="30" width="150" height="30" as="geometry">
            <mxRectangle width="150" height="30" as="alternateBounds" />
          </mxGeometry>
        </mxCell>
        <mxCell id="wPyV7EjvyFOrCt24FmBM-68" value="" style="shape=tableRow;horizontal=0;startSize=0;swimlaneHead=0;swimlaneBody=0;fillColor=none;collapsible=0;dropTarget=0;points=[[0,0.5],[1,0.5]];portConstraint=eastwest;top=0;left=0;right=0;bottom=0;opacity=80;" vertex="1" parent="wPyV7EjvyFOrCt24FmBM-61">
          <mxGeometry y="90" width="180" height="30" as="geometry" />
        </mxCell>
        <mxCell id="wPyV7EjvyFOrCt24FmBM-69" value="" style="shape=partialRectangle;connectable=0;fillColor=none;top=0;left=0;bottom=0;right=0;editable=1;overflow=hidden;whiteSpace=wrap;html=1;opacity=80;" vertex="1" parent="wPyV7EjvyFOrCt24FmBM-68">
          <mxGeometry width="30" height="30" as="geometry">
            <mxRectangle width="30" height="30" as="alternateBounds" />
          </mxGeometry>
        </mxCell>
        <mxCell id="wPyV7EjvyFOrCt24FmBM-70" value="&lt;b&gt;OrderID&lt;/b&gt;" style="shape=partialRectangle;connectable=0;fillColor=none;top=0;left=0;bottom=0;right=0;align=left;spacingLeft=6;overflow=hidden;whiteSpace=wrap;html=1;opacity=80;" vertex="1" parent="wPyV7EjvyFOrCt24FmBM-68">
          <mxGeometry x="30" width="150" height="30" as="geometry">
            <mxRectangle width="150" height="30" as="alternateBounds" />
          </mxGeometry>
        </mxCell>
        <mxCell id="wPyV7EjvyFOrCt24FmBM-71" value="" style="shape=tableRow;horizontal=0;startSize=0;swimlaneHead=0;swimlaneBody=0;fillColor=none;collapsible=0;dropTarget=0;points=[[0,0.5],[1,0.5]];portConstraint=eastwest;top=0;left=0;right=0;bottom=0;opacity=80;" vertex="1" parent="wPyV7EjvyFOrCt24FmBM-61">
          <mxGeometry y="120" width="180" height="30" as="geometry" />
        </mxCell>
        <mxCell id="wPyV7EjvyFOrCt24FmBM-72" value="" style="shape=partialRectangle;connectable=0;fillColor=none;top=0;left=0;bottom=0;right=0;editable=1;overflow=hidden;whiteSpace=wrap;html=1;opacity=80;" vertex="1" parent="wPyV7EjvyFOrCt24FmBM-71">
          <mxGeometry width="30" height="30" as="geometry">
            <mxRectangle width="30" height="30" as="alternateBounds" />
          </mxGeometry>
        </mxCell>
        <mxCell id="wPyV7EjvyFOrCt24FmBM-73" value="&lt;strong&gt;ListingID&lt;/strong&gt;" style="shape=partialRectangle;connectable=0;fillColor=none;top=0;left=0;bottom=0;right=0;align=left;spacingLeft=6;overflow=hidden;whiteSpace=wrap;html=1;opacity=80;" vertex="1" parent="wPyV7EjvyFOrCt24FmBM-71">
          <mxGeometry x="30" width="150" height="30" as="geometry">
            <mxRectangle width="150" height="30" as="alternateBounds" />
          </mxGeometry>
        </mxCell>
        <mxCell id="wPyV7EjvyFOrCt24FmBM-74" value="FK" style="shape=partialRectangle;connectable=0;fillColor=none;top=0;left=0;bottom=0;right=0;fontStyle=1;overflow=hidden;whiteSpace=wrap;html=1;opacity=80;" vertex="1" parent="wPyV7EjvyFOrCt24FmBM-60">
          <mxGeometry y="60" width="30" height="30" as="geometry">
            <mxRectangle width="30" height="30" as="alternateBounds" />
          </mxGeometry>
        </mxCell>
        <mxCell id="wPyV7EjvyFOrCt24FmBM-75" value="" style="shape=tableRow;horizontal=0;startSize=0;swimlaneHead=0;swimlaneBody=0;fillColor=none;collapsible=0;dropTarget=0;points=[[0,0.5],[1,0.5]];portConstraint=eastwest;top=0;left=0;right=0;bottom=0;opacity=80;" vertex="1" parent="wPyV7EjvyFOrCt24FmBM-60">
          <mxGeometry y="150" width="180" height="30" as="geometry" />
        </mxCell>
        <mxCell id="wPyV7EjvyFOrCt24FmBM-76" value="" style="shape=partialRectangle;connectable=0;fillColor=none;top=0;left=0;bottom=0;right=0;editable=1;overflow=hidden;whiteSpace=wrap;html=1;opacity=80;" vertex="1" parent="wPyV7EjvyFOrCt24FmBM-75">
          <mxGeometry width="30" height="30" as="geometry">
            <mxRectangle width="30" height="30" as="alternateBounds" />
          </mxGeometry>
        </mxCell>
        <mxCell id="wPyV7EjvyFOrCt24FmBM-77" value="&lt;strong&gt;Quantity&lt;/strong&gt;" style="shape=partialRectangle;connectable=0;fillColor=none;top=0;left=0;bottom=0;right=0;align=left;spacingLeft=6;overflow=hidden;whiteSpace=wrap;html=1;opacity=80;" vertex="1" parent="wPyV7EjvyFOrCt24FmBM-75">
          <mxGeometry x="30" width="150" height="30" as="geometry">
            <mxRectangle width="150" height="30" as="alternateBounds" />
          </mxGeometry>
        </mxCell>
        <mxCell id="wPyV7EjvyFOrCt24FmBM-78" value="" style="shape=tableRow;horizontal=0;startSize=0;swimlaneHead=0;swimlaneBody=0;fillColor=none;collapsible=0;dropTarget=0;points=[[0,0.5],[1,0.5]];portConstraint=eastwest;top=0;left=0;right=0;bottom=0;opacity=80;" vertex="1" parent="wPyV7EjvyFOrCt24FmBM-60">
          <mxGeometry y="180" width="180" height="30" as="geometry" />
        </mxCell>
        <mxCell id="wPyV7EjvyFOrCt24FmBM-79" value="" style="shape=partialRectangle;connectable=0;fillColor=none;top=0;left=0;bottom=0;right=0;editable=1;overflow=hidden;whiteSpace=wrap;html=1;opacity=80;" vertex="1" parent="wPyV7EjvyFOrCt24FmBM-78">
          <mxGeometry width="30" height="30" as="geometry">
            <mxRectangle width="30" height="30" as="alternateBounds" />
          </mxGeometry>
        </mxCell>
        <mxCell id="wPyV7EjvyFOrCt24FmBM-80" value="&lt;strong&gt;SalePrice&lt;/strong&gt;" style="shape=partialRectangle;connectable=0;fillColor=none;top=0;left=0;bottom=0;right=0;align=left;spacingLeft=6;overflow=hidden;whiteSpace=wrap;html=1;opacity=80;" vertex="1" parent="wPyV7EjvyFOrCt24FmBM-78">
          <mxGeometry x="30" width="150" height="30" as="geometry">
            <mxRectangle width="150" height="30" as="alternateBounds" />
          </mxGeometry>
        </mxCell>
        <mxCell id="wPyV7EjvyFOrCt24FmBM-81" value="FK" style="shape=partialRectangle;connectable=0;fillColor=none;top=0;left=0;bottom=0;right=0;fontStyle=1;overflow=hidden;whiteSpace=wrap;html=1;opacity=80;" vertex="1" parent="wPyV7EjvyFOrCt24FmBM-60">
          <mxGeometry y="90" width="30" height="30" as="geometry">
            <mxRectangle width="30" height="30" as="alternateBounds" />
          </mxGeometry>
        </mxCell>
        <mxCell id="wPyV7EjvyFOrCt24FmBM-82" value="" style="endArrow=none;html=1;rounded=0;exitX=0.167;exitY=0.002;exitDx=0;exitDy=0;exitPerimeter=0;opacity=80;" edge="1" parent="wPyV7EjvyFOrCt24FmBM-60" source="wPyV7EjvyFOrCt24FmBM-75">
          <mxGeometry relative="1" as="geometry">
            <mxPoint x="30" y="151" as="sourcePoint" />
            <mxPoint x="30" y="210" as="targetPoint" />
          </mxGeometry>
        </mxCell>
        <mxCell id="wPyV7EjvyFOrCt24FmBM-84" value="FK" style="shape=partialRectangle;connectable=0;fillColor=none;top=0;left=0;bottom=0;right=0;fontStyle=1;overflow=hidden;whiteSpace=wrap;html=1;opacity=80;" vertex="1" parent="wPyV7EjvyFOrCt24FmBM-60">
          <mxGeometry y="120" width="30" height="30" as="geometry">
            <mxRectangle width="30" height="30" as="alternateBounds" />
          </mxGeometry>
        </mxCell>
        <mxCell id="wPyV7EjvyFOrCt24FmBM-110" value="" style="group;movable=1;resizable=1;rotatable=1;deletable=1;editable=1;locked=0;connectable=1;opacity=80;" vertex="1" connectable="0" parent="1">
          <mxGeometry x="630" y="120" width="180" height="210" as="geometry" />
        </mxCell>
        <mxCell id="wPyV7EjvyFOrCt24FmBM-87" value="FactReviews" style="shape=table;startSize=30;container=1;collapsible=1;childLayout=tableLayout;fixedRows=1;rowLines=0;fontStyle=1;align=center;resizeLast=1;html=1;movable=1;resizable=1;rotatable=1;deletable=1;editable=1;locked=0;connectable=1;opacity=80;" vertex="1" parent="wPyV7EjvyFOrCt24FmBM-110">
          <mxGeometry width="180" height="210" as="geometry" />
        </mxCell>
        <mxCell id="wPyV7EjvyFOrCt24FmBM-88" value="" style="shape=tableRow;horizontal=0;startSize=0;swimlaneHead=0;swimlaneBody=0;fillColor=none;collapsible=0;dropTarget=0;points=[[0,0.5],[1,0.5]];portConstraint=eastwest;top=0;left=0;right=0;bottom=1;movable=1;resizable=1;rotatable=1;deletable=1;editable=1;locked=0;connectable=1;opacity=80;" vertex="1" parent="wPyV7EjvyFOrCt24FmBM-87">
          <mxGeometry y="30" width="180" height="30" as="geometry" />
        </mxCell>
        <mxCell id="wPyV7EjvyFOrCt24FmBM-89" value="PK" style="shape=partialRectangle;connectable=1;fillColor=none;top=0;left=0;bottom=0;right=0;fontStyle=1;overflow=hidden;whiteSpace=wrap;html=1;movable=1;resizable=1;rotatable=1;deletable=1;editable=1;locked=0;opacity=80;" vertex="1" parent="wPyV7EjvyFOrCt24FmBM-88">
          <mxGeometry width="30" height="30" as="geometry">
            <mxRectangle width="30" height="30" as="alternateBounds" />
          </mxGeometry>
        </mxCell>
        <mxCell id="wPyV7EjvyFOrCt24FmBM-90" value="&lt;strong&gt;FactReviewID&lt;/strong&gt;" style="shape=partialRectangle;connectable=1;fillColor=none;top=0;left=0;bottom=0;right=0;align=left;spacingLeft=6;fontStyle=5;overflow=hidden;whiteSpace=wrap;html=1;movable=1;resizable=1;rotatable=1;deletable=1;editable=1;locked=0;opacity=80;" vertex="1" parent="wPyV7EjvyFOrCt24FmBM-88">
          <mxGeometry x="30" width="150" height="30" as="geometry">
            <mxRectangle width="150" height="30" as="alternateBounds" />
          </mxGeometry>
        </mxCell>
        <mxCell id="wPyV7EjvyFOrCt24FmBM-91" value="" style="shape=tableRow;horizontal=0;startSize=0;swimlaneHead=0;swimlaneBody=0;fillColor=none;collapsible=0;dropTarget=0;points=[[0,0.5],[1,0.5]];portConstraint=eastwest;top=0;left=0;right=0;bottom=0;movable=1;resizable=1;rotatable=1;deletable=1;editable=1;locked=0;connectable=1;opacity=80;" vertex="1" parent="wPyV7EjvyFOrCt24FmBM-87">
          <mxGeometry y="60" width="180" height="30" as="geometry" />
        </mxCell>
        <mxCell id="wPyV7EjvyFOrCt24FmBM-92" value="" style="shape=partialRectangle;connectable=1;fillColor=none;top=0;left=0;bottom=0;right=0;editable=1;overflow=hidden;whiteSpace=wrap;html=1;movable=1;resizable=1;rotatable=1;deletable=1;locked=0;opacity=80;" vertex="1" parent="wPyV7EjvyFOrCt24FmBM-91">
          <mxGeometry width="30" height="30" as="geometry">
            <mxRectangle width="30" height="30" as="alternateBounds" />
          </mxGeometry>
        </mxCell>
        <mxCell id="wPyV7EjvyFOrCt24FmBM-93" value="&lt;b&gt;UserID&lt;/b&gt;" style="shape=partialRectangle;connectable=1;fillColor=none;top=0;left=0;bottom=0;right=0;align=left;spacingLeft=6;overflow=hidden;whiteSpace=wrap;html=1;movable=1;resizable=1;rotatable=1;deletable=1;editable=1;locked=0;opacity=80;" vertex="1" parent="wPyV7EjvyFOrCt24FmBM-91">
          <mxGeometry x="30" width="150" height="30" as="geometry">
            <mxRectangle width="150" height="30" as="alternateBounds" />
          </mxGeometry>
        </mxCell>
        <mxCell id="wPyV7EjvyFOrCt24FmBM-94" value="" style="shape=tableRow;horizontal=0;startSize=0;swimlaneHead=0;swimlaneBody=0;fillColor=none;collapsible=0;dropTarget=0;points=[[0,0.5],[1,0.5]];portConstraint=eastwest;top=0;left=0;right=0;bottom=0;movable=1;resizable=1;rotatable=1;deletable=1;editable=1;locked=0;connectable=1;opacity=80;" vertex="1" parent="wPyV7EjvyFOrCt24FmBM-87">
          <mxGeometry y="90" width="180" height="30" as="geometry" />
        </mxCell>
        <mxCell id="wPyV7EjvyFOrCt24FmBM-95" value="" style="shape=partialRectangle;connectable=1;fillColor=none;top=0;left=0;bottom=0;right=0;editable=1;overflow=hidden;whiteSpace=wrap;html=1;movable=1;resizable=1;rotatable=1;deletable=1;locked=0;opacity=80;" vertex="1" parent="wPyV7EjvyFOrCt24FmBM-94">
          <mxGeometry width="30" height="30" as="geometry">
            <mxRectangle width="30" height="30" as="alternateBounds" />
          </mxGeometry>
        </mxCell>
        <mxCell id="wPyV7EjvyFOrCt24FmBM-96" value="&lt;strong&gt;ProductID&lt;/strong&gt;" style="shape=partialRectangle;connectable=1;fillColor=none;top=0;left=0;bottom=0;right=0;align=left;spacingLeft=6;overflow=hidden;whiteSpace=wrap;html=1;movable=1;resizable=1;rotatable=1;deletable=1;editable=1;locked=0;opacity=80;" vertex="1" parent="wPyV7EjvyFOrCt24FmBM-94">
          <mxGeometry x="30" width="150" height="30" as="geometry">
            <mxRectangle width="150" height="30" as="alternateBounds" />
          </mxGeometry>
        </mxCell>
        <mxCell id="wPyV7EjvyFOrCt24FmBM-97" value="" style="shape=tableRow;horizontal=0;startSize=0;swimlaneHead=0;swimlaneBody=0;fillColor=none;collapsible=0;dropTarget=0;points=[[0,0.5],[1,0.5]];portConstraint=eastwest;top=0;left=0;right=0;bottom=0;movable=1;resizable=1;rotatable=1;deletable=1;editable=1;locked=0;connectable=1;opacity=80;" vertex="1" parent="wPyV7EjvyFOrCt24FmBM-87">
          <mxGeometry y="120" width="180" height="30" as="geometry" />
        </mxCell>
        <mxCell id="wPyV7EjvyFOrCt24FmBM-98" value="" style="shape=partialRectangle;connectable=1;fillColor=none;top=0;left=0;bottom=0;right=0;editable=1;overflow=hidden;whiteSpace=wrap;html=1;movable=1;resizable=1;rotatable=1;deletable=1;locked=0;opacity=80;" vertex="1" parent="wPyV7EjvyFOrCt24FmBM-97">
          <mxGeometry width="30" height="30" as="geometry">
            <mxRectangle width="30" height="30" as="alternateBounds" />
          </mxGeometry>
        </mxCell>
        <mxCell id="wPyV7EjvyFOrCt24FmBM-99" value="&lt;strong&gt;Rating&lt;/strong&gt;" style="shape=partialRectangle;connectable=1;fillColor=none;top=0;left=0;bottom=0;right=0;align=left;spacingLeft=6;overflow=hidden;whiteSpace=wrap;html=1;movable=1;resizable=1;rotatable=1;deletable=1;editable=1;locked=0;opacity=80;" vertex="1" parent="wPyV7EjvyFOrCt24FmBM-97">
          <mxGeometry x="30" width="150" height="30" as="geometry">
            <mxRectangle width="150" height="30" as="alternateBounds" />
          </mxGeometry>
        </mxCell>
        <mxCell id="wPyV7EjvyFOrCt24FmBM-100" value="FK" style="shape=partialRectangle;connectable=1;fillColor=none;top=0;left=0;bottom=0;right=0;fontStyle=1;overflow=hidden;whiteSpace=wrap;html=1;movable=1;resizable=1;rotatable=1;deletable=1;editable=1;locked=0;opacity=80;" vertex="1" parent="wPyV7EjvyFOrCt24FmBM-110">
          <mxGeometry y="60" width="30" height="30" as="geometry">
            <mxRectangle width="30" height="30" as="alternateBounds" />
          </mxGeometry>
        </mxCell>
        <mxCell id="wPyV7EjvyFOrCt24FmBM-101" value="" style="shape=tableRow;horizontal=0;startSize=0;swimlaneHead=0;swimlaneBody=0;fillColor=none;collapsible=0;dropTarget=0;points=[[0,0.5],[1,0.5]];portConstraint=eastwest;top=0;left=0;right=0;bottom=0;movable=1;resizable=1;rotatable=1;deletable=1;editable=1;locked=0;connectable=1;opacity=80;" vertex="1" parent="wPyV7EjvyFOrCt24FmBM-110">
          <mxGeometry y="150" width="180" height="30" as="geometry" />
        </mxCell>
        <mxCell id="wPyV7EjvyFOrCt24FmBM-102" value="" style="shape=partialRectangle;connectable=1;fillColor=none;top=0;left=0;bottom=0;right=0;editable=1;overflow=hidden;whiteSpace=wrap;html=1;movable=1;resizable=1;rotatable=1;deletable=1;locked=0;opacity=80;" vertex="1" parent="wPyV7EjvyFOrCt24FmBM-101">
          <mxGeometry width="30" height="30" as="geometry">
            <mxRectangle width="30" height="30" as="alternateBounds" />
          </mxGeometry>
        </mxCell>
        <mxCell id="wPyV7EjvyFOrCt24FmBM-103" value="&lt;strong&gt;ReviewDate&lt;/strong&gt;" style="shape=partialRectangle;connectable=1;fillColor=none;top=0;left=0;bottom=0;right=0;align=left;spacingLeft=6;overflow=hidden;whiteSpace=wrap;html=1;movable=1;resizable=1;rotatable=1;deletable=1;editable=1;locked=0;opacity=80;" vertex="1" parent="wPyV7EjvyFOrCt24FmBM-101">
          <mxGeometry x="30" width="150" height="30" as="geometry">
            <mxRectangle width="150" height="30" as="alternateBounds" />
          </mxGeometry>
        </mxCell>
        <mxCell id="wPyV7EjvyFOrCt24FmBM-104" value="" style="shape=tableRow;horizontal=0;startSize=0;swimlaneHead=0;swimlaneBody=0;fillColor=none;collapsible=0;dropTarget=0;points=[[0,0.5],[1,0.5]];portConstraint=eastwest;top=0;left=0;right=0;bottom=0;movable=1;resizable=1;rotatable=1;deletable=1;editable=1;locked=0;connectable=1;opacity=80;" vertex="1" parent="wPyV7EjvyFOrCt24FmBM-110">
          <mxGeometry y="180" width="180" height="30" as="geometry" />
        </mxCell>
        <mxCell id="wPyV7EjvyFOrCt24FmBM-105" value="" style="shape=partialRectangle;connectable=1;fillColor=none;top=0;left=0;bottom=0;right=0;editable=1;overflow=hidden;whiteSpace=wrap;html=1;movable=1;resizable=1;rotatable=1;deletable=1;locked=0;opacity=80;" vertex="1" parent="wPyV7EjvyFOrCt24FmBM-104">
          <mxGeometry width="30" height="30" as="geometry">
            <mxRectangle width="30" height="30" as="alternateBounds" />
          </mxGeometry>
        </mxCell>
        <mxCell id="wPyV7EjvyFOrCt24FmBM-106" value="&lt;strong&gt;ReviewText&lt;/strong&gt;" style="shape=partialRectangle;connectable=1;fillColor=none;top=0;left=0;bottom=0;right=0;align=left;spacingLeft=6;overflow=hidden;whiteSpace=wrap;html=1;movable=1;resizable=1;rotatable=1;deletable=1;editable=1;locked=0;opacity=80;" vertex="1" parent="wPyV7EjvyFOrCt24FmBM-104">
          <mxGeometry x="30" width="150" height="30" as="geometry">
            <mxRectangle width="150" height="30" as="alternateBounds" />
          </mxGeometry>
        </mxCell>
        <mxCell id="wPyV7EjvyFOrCt24FmBM-107" value="FK" style="shape=partialRectangle;connectable=1;fillColor=none;top=0;left=0;bottom=0;right=0;fontStyle=1;overflow=hidden;whiteSpace=wrap;html=1;movable=1;resizable=1;rotatable=1;deletable=1;editable=1;locked=0;opacity=80;" vertex="1" parent="wPyV7EjvyFOrCt24FmBM-110">
          <mxGeometry y="90" width="30" height="30" as="geometry">
            <mxRectangle width="30" height="30" as="alternateBounds" />
          </mxGeometry>
        </mxCell>
        <mxCell id="wPyV7EjvyFOrCt24FmBM-108" value="" style="endArrow=none;html=1;rounded=0;exitX=0.167;exitY=0.002;exitDx=0;exitDy=0;exitPerimeter=0;movable=1;resizable=1;rotatable=1;deletable=1;editable=1;locked=0;connectable=1;opacity=80;" edge="1" parent="wPyV7EjvyFOrCt24FmBM-110" source="wPyV7EjvyFOrCt24FmBM-101">
          <mxGeometry relative="1" as="geometry">
            <mxPoint x="30" y="151" as="sourcePoint" />
            <mxPoint x="30" y="210" as="targetPoint" />
          </mxGeometry>
        </mxCell>
        <mxCell id="wPyV7EjvyFOrCt24FmBM-111" value="DimensionUsers" style="shape=table;startSize=30;container=1;collapsible=1;childLayout=tableLayout;fixedRows=1;rowLines=0;fontStyle=1;align=center;resizeLast=1;html=1;opacity=80;" vertex="1" parent="1">
          <mxGeometry x="350" y="110" width="180" height="150" as="geometry" />
        </mxCell>
        <mxCell id="wPyV7EjvyFOrCt24FmBM-112" value="" style="shape=tableRow;horizontal=0;startSize=0;swimlaneHead=0;swimlaneBody=0;fillColor=none;collapsible=0;dropTarget=0;points=[[0,0.5],[1,0.5]];portConstraint=eastwest;top=0;left=0;right=0;bottom=1;opacity=80;" vertex="1" parent="wPyV7EjvyFOrCt24FmBM-111">
          <mxGeometry y="30" width="180" height="30" as="geometry" />
        </mxCell>
        <mxCell id="wPyV7EjvyFOrCt24FmBM-113" value="PK" style="shape=partialRectangle;connectable=0;fillColor=none;top=0;left=0;bottom=0;right=0;fontStyle=1;overflow=hidden;whiteSpace=wrap;html=1;opacity=80;" vertex="1" parent="wPyV7EjvyFOrCt24FmBM-112">
          <mxGeometry width="30" height="30" as="geometry">
            <mxRectangle width="30" height="30" as="alternateBounds" />
          </mxGeometry>
        </mxCell>
        <mxCell id="wPyV7EjvyFOrCt24FmBM-114" value="&lt;strong&gt;UserID&lt;/strong&gt;" style="shape=partialRectangle;connectable=0;fillColor=none;top=0;left=0;bottom=0;right=0;align=left;spacingLeft=6;fontStyle=5;overflow=hidden;whiteSpace=wrap;html=1;opacity=80;" vertex="1" parent="wPyV7EjvyFOrCt24FmBM-112">
          <mxGeometry x="30" width="150" height="30" as="geometry">
            <mxRectangle width="150" height="30" as="alternateBounds" />
          </mxGeometry>
        </mxCell>
        <mxCell id="wPyV7EjvyFOrCt24FmBM-115" value="" style="shape=tableRow;horizontal=0;startSize=0;swimlaneHead=0;swimlaneBody=0;fillColor=none;collapsible=0;dropTarget=0;points=[[0,0.5],[1,0.5]];portConstraint=eastwest;top=0;left=0;right=0;bottom=0;opacity=80;" vertex="1" parent="wPyV7EjvyFOrCt24FmBM-111">
          <mxGeometry y="60" width="180" height="30" as="geometry" />
        </mxCell>
        <mxCell id="wPyV7EjvyFOrCt24FmBM-116" value="" style="shape=partialRectangle;connectable=0;fillColor=none;top=0;left=0;bottom=0;right=0;editable=1;overflow=hidden;whiteSpace=wrap;html=1;opacity=80;" vertex="1" parent="wPyV7EjvyFOrCt24FmBM-115">
          <mxGeometry width="30" height="30" as="geometry">
            <mxRectangle width="30" height="30" as="alternateBounds" />
          </mxGeometry>
        </mxCell>
        <mxCell id="wPyV7EjvyFOrCt24FmBM-117" value="&lt;b&gt;Name&lt;/b&gt;" style="shape=partialRectangle;connectable=0;fillColor=none;top=0;left=0;bottom=0;right=0;align=left;spacingLeft=6;overflow=hidden;whiteSpace=wrap;html=1;opacity=80;" vertex="1" parent="wPyV7EjvyFOrCt24FmBM-115">
          <mxGeometry x="30" width="150" height="30" as="geometry">
            <mxRectangle width="150" height="30" as="alternateBounds" />
          </mxGeometry>
        </mxCell>
        <mxCell id="wPyV7EjvyFOrCt24FmBM-118" value="" style="shape=tableRow;horizontal=0;startSize=0;swimlaneHead=0;swimlaneBody=0;fillColor=none;collapsible=0;dropTarget=0;points=[[0,0.5],[1,0.5]];portConstraint=eastwest;top=0;left=0;right=0;bottom=0;opacity=80;" vertex="1" parent="wPyV7EjvyFOrCt24FmBM-111">
          <mxGeometry y="90" width="180" height="30" as="geometry" />
        </mxCell>
        <mxCell id="wPyV7EjvyFOrCt24FmBM-119" value="" style="shape=partialRectangle;connectable=0;fillColor=none;top=0;left=0;bottom=0;right=0;editable=1;overflow=hidden;whiteSpace=wrap;html=1;opacity=80;" vertex="1" parent="wPyV7EjvyFOrCt24FmBM-118">
          <mxGeometry width="30" height="30" as="geometry">
            <mxRectangle width="30" height="30" as="alternateBounds" />
          </mxGeometry>
        </mxCell>
        <mxCell id="wPyV7EjvyFOrCt24FmBM-120" value="&lt;b&gt;Email&lt;/b&gt;" style="shape=partialRectangle;connectable=0;fillColor=none;top=0;left=0;bottom=0;right=0;align=left;spacingLeft=6;overflow=hidden;whiteSpace=wrap;html=1;opacity=80;" vertex="1" parent="wPyV7EjvyFOrCt24FmBM-118">
          <mxGeometry x="30" width="150" height="30" as="geometry">
            <mxRectangle width="150" height="30" as="alternateBounds" />
          </mxGeometry>
        </mxCell>
        <mxCell id="wPyV7EjvyFOrCt24FmBM-121" value="" style="shape=tableRow;horizontal=0;startSize=0;swimlaneHead=0;swimlaneBody=0;fillColor=none;collapsible=0;dropTarget=0;points=[[0,0.5],[1,0.5]];portConstraint=eastwest;top=0;left=0;right=0;bottom=0;opacity=80;" vertex="1" parent="wPyV7EjvyFOrCt24FmBM-111">
          <mxGeometry y="120" width="180" height="30" as="geometry" />
        </mxCell>
        <mxCell id="wPyV7EjvyFOrCt24FmBM-122" value="" style="shape=partialRectangle;connectable=0;fillColor=none;top=0;left=0;bottom=0;right=0;editable=1;overflow=hidden;whiteSpace=wrap;html=1;opacity=80;" vertex="1" parent="wPyV7EjvyFOrCt24FmBM-121">
          <mxGeometry width="30" height="30" as="geometry">
            <mxRectangle width="30" height="30" as="alternateBounds" />
          </mxGeometry>
        </mxCell>
        <mxCell id="wPyV7EjvyFOrCt24FmBM-123" value="&lt;strong&gt;Role&lt;/strong&gt;" style="shape=partialRectangle;connectable=0;fillColor=none;top=0;left=0;bottom=0;right=0;align=left;spacingLeft=6;overflow=hidden;whiteSpace=wrap;html=1;opacity=80;" vertex="1" parent="wPyV7EjvyFOrCt24FmBM-121">
          <mxGeometry x="30" width="150" height="30" as="geometry">
            <mxRectangle width="150" height="30" as="alternateBounds" />
          </mxGeometry>
        </mxCell>
        <mxCell id="wPyV7EjvyFOrCt24FmBM-141" value="" style="group;opacity=80;" vertex="1" connectable="0" parent="1">
          <mxGeometry x="80" y="470" width="180" height="175" as="geometry" />
        </mxCell>
        <mxCell id="wPyV7EjvyFOrCt24FmBM-124" value="DimensionListings" style="shape=table;startSize=30;container=1;collapsible=1;childLayout=tableLayout;fixedRows=1;rowLines=0;fontStyle=1;align=center;resizeLast=1;html=1;opacity=80;" vertex="1" parent="wPyV7EjvyFOrCt24FmBM-141">
          <mxGeometry width="180" height="175" as="geometry" />
        </mxCell>
        <mxCell id="wPyV7EjvyFOrCt24FmBM-125" value="" style="shape=tableRow;horizontal=0;startSize=0;swimlaneHead=0;swimlaneBody=0;fillColor=none;collapsible=0;dropTarget=0;points=[[0,0.5],[1,0.5]];portConstraint=eastwest;top=0;left=0;right=0;bottom=1;opacity=80;" vertex="1" parent="wPyV7EjvyFOrCt24FmBM-124">
          <mxGeometry y="30" width="180" height="30" as="geometry" />
        </mxCell>
        <mxCell id="wPyV7EjvyFOrCt24FmBM-126" value="PK" style="shape=partialRectangle;connectable=0;fillColor=none;top=0;left=0;bottom=0;right=0;fontStyle=1;overflow=hidden;whiteSpace=wrap;html=1;opacity=80;" vertex="1" parent="wPyV7EjvyFOrCt24FmBM-125">
          <mxGeometry width="30" height="30" as="geometry">
            <mxRectangle width="30" height="30" as="alternateBounds" />
          </mxGeometry>
        </mxCell>
        <mxCell id="wPyV7EjvyFOrCt24FmBM-127" value="&lt;strong&gt;ListingID&lt;/strong&gt;" style="shape=partialRectangle;connectable=0;fillColor=none;top=0;left=0;bottom=0;right=0;align=left;spacingLeft=6;fontStyle=5;overflow=hidden;whiteSpace=wrap;html=1;opacity=80;" vertex="1" parent="wPyV7EjvyFOrCt24FmBM-125">
          <mxGeometry x="30" width="150" height="30" as="geometry">
            <mxRectangle width="150" height="30" as="alternateBounds" />
          </mxGeometry>
        </mxCell>
        <mxCell id="wPyV7EjvyFOrCt24FmBM-128" value="" style="shape=tableRow;horizontal=0;startSize=0;swimlaneHead=0;swimlaneBody=0;fillColor=none;collapsible=0;dropTarget=0;points=[[0,0.5],[1,0.5]];portConstraint=eastwest;top=0;left=0;right=0;bottom=0;opacity=80;" vertex="1" parent="wPyV7EjvyFOrCt24FmBM-124">
          <mxGeometry y="60" width="180" height="30" as="geometry" />
        </mxCell>
        <mxCell id="wPyV7EjvyFOrCt24FmBM-129" value="" style="shape=partialRectangle;connectable=0;fillColor=none;top=0;left=0;bottom=0;right=0;editable=1;overflow=hidden;whiteSpace=wrap;html=1;opacity=80;" vertex="1" parent="wPyV7EjvyFOrCt24FmBM-128">
          <mxGeometry width="30" height="30" as="geometry">
            <mxRectangle width="30" height="30" as="alternateBounds" />
          </mxGeometry>
        </mxCell>
        <mxCell id="wPyV7EjvyFOrCt24FmBM-130" value="&lt;b&gt;Title&lt;/b&gt;" style="shape=partialRectangle;connectable=0;fillColor=none;top=0;left=0;bottom=0;right=0;align=left;spacingLeft=6;overflow=hidden;whiteSpace=wrap;html=1;opacity=80;" vertex="1" parent="wPyV7EjvyFOrCt24FmBM-128">
          <mxGeometry x="30" width="150" height="30" as="geometry">
            <mxRectangle width="150" height="30" as="alternateBounds" />
          </mxGeometry>
        </mxCell>
        <mxCell id="wPyV7EjvyFOrCt24FmBM-131" value="" style="shape=tableRow;horizontal=0;startSize=0;swimlaneHead=0;swimlaneBody=0;fillColor=none;collapsible=0;dropTarget=0;points=[[0,0.5],[1,0.5]];portConstraint=eastwest;top=0;left=0;right=0;bottom=0;opacity=80;" vertex="1" parent="wPyV7EjvyFOrCt24FmBM-124">
          <mxGeometry y="90" width="180" height="30" as="geometry" />
        </mxCell>
        <mxCell id="wPyV7EjvyFOrCt24FmBM-132" value="" style="shape=partialRectangle;connectable=0;fillColor=none;top=0;left=0;bottom=0;right=0;editable=1;overflow=hidden;whiteSpace=wrap;html=1;opacity=80;" vertex="1" parent="wPyV7EjvyFOrCt24FmBM-131">
          <mxGeometry width="30" height="30" as="geometry">
            <mxRectangle width="30" height="30" as="alternateBounds" />
          </mxGeometry>
        </mxCell>
        <mxCell id="wPyV7EjvyFOrCt24FmBM-133" value="&lt;strong&gt;CategoryID&lt;/strong&gt;" style="shape=partialRectangle;connectable=0;fillColor=none;top=0;left=0;bottom=0;right=0;align=left;spacingLeft=6;overflow=hidden;whiteSpace=wrap;html=1;opacity=80;" vertex="1" parent="wPyV7EjvyFOrCt24FmBM-131">
          <mxGeometry x="30" width="150" height="30" as="geometry">
            <mxRectangle width="150" height="30" as="alternateBounds" />
          </mxGeometry>
        </mxCell>
        <mxCell id="wPyV7EjvyFOrCt24FmBM-134" value="" style="shape=tableRow;horizontal=0;startSize=0;swimlaneHead=0;swimlaneBody=0;fillColor=none;collapsible=0;dropTarget=0;points=[[0,0.5],[1,0.5]];portConstraint=eastwest;top=0;left=0;right=0;bottom=0;opacity=80;" vertex="1" parent="wPyV7EjvyFOrCt24FmBM-124">
          <mxGeometry y="120" width="180" height="30" as="geometry" />
        </mxCell>
        <mxCell id="wPyV7EjvyFOrCt24FmBM-135" value="" style="shape=partialRectangle;connectable=0;fillColor=none;top=0;left=0;bottom=0;right=0;editable=1;overflow=hidden;whiteSpace=wrap;html=1;opacity=80;" vertex="1" parent="wPyV7EjvyFOrCt24FmBM-134">
          <mxGeometry width="30" height="30" as="geometry">
            <mxRectangle width="30" height="30" as="alternateBounds" />
          </mxGeometry>
        </mxCell>
        <mxCell id="wPyV7EjvyFOrCt24FmBM-136" value="&lt;strong&gt;Condition&lt;/strong&gt;" style="shape=partialRectangle;connectable=0;fillColor=none;top=0;left=0;bottom=0;right=0;align=left;spacingLeft=6;overflow=hidden;whiteSpace=wrap;html=1;opacity=80;" vertex="1" parent="wPyV7EjvyFOrCt24FmBM-134">
          <mxGeometry x="30" width="150" height="30" as="geometry">
            <mxRectangle width="150" height="30" as="alternateBounds" />
          </mxGeometry>
        </mxCell>
        <mxCell id="wPyV7EjvyFOrCt24FmBM-137" value="FK" style="shape=partialRectangle;connectable=1;fillColor=none;top=0;left=0;bottom=0;right=0;fontStyle=1;overflow=hidden;whiteSpace=wrap;html=1;movable=1;resizable=1;rotatable=1;deletable=1;editable=1;locked=0;opacity=80;" vertex="1" parent="wPyV7EjvyFOrCt24FmBM-141">
          <mxGeometry y="91" width="30" height="30" as="geometry">
            <mxRectangle width="30" height="30" as="alternateBounds" />
          </mxGeometry>
        </mxCell>
        <mxCell id="wPyV7EjvyFOrCt24FmBM-139" value="" style="endArrow=none;html=1;rounded=0;exitX=0.167;exitY=0.002;exitDx=0;exitDy=0;exitPerimeter=0;opacity=80;" edge="1" parent="wPyV7EjvyFOrCt24FmBM-141">
          <mxGeometry relative="1" as="geometry">
            <mxPoint x="30" y="85" as="sourcePoint" />
            <mxPoint x="30" y="175" as="targetPoint" />
          </mxGeometry>
        </mxCell>
        <mxCell id="wPyV7EjvyFOrCt24FmBM-140" value="&lt;b&gt;Price&lt;/b&gt;" style="shape=partialRectangle;connectable=0;fillColor=none;top=0;left=0;bottom=0;right=0;align=left;spacingLeft=6;overflow=hidden;whiteSpace=wrap;html=1;opacity=80;" vertex="1" parent="wPyV7EjvyFOrCt24FmBM-141">
          <mxGeometry x="30" y="145" width="150" height="30" as="geometry">
            <mxRectangle width="150" height="30" as="alternateBounds" />
          </mxGeometry>
        </mxCell>
        <mxCell id="wPyV7EjvyFOrCt24FmBM-142" value="DimensionCategories" style="shape=table;startSize=30;container=1;collapsible=1;childLayout=tableLayout;fixedRows=1;rowLines=0;fontStyle=1;align=center;resizeLast=1;html=1;opacity=80;" vertex="1" parent="1">
          <mxGeometry x="360" y="570" width="180" height="120" as="geometry" />
        </mxCell>
        <mxCell id="wPyV7EjvyFOrCt24FmBM-143" value="" style="shape=tableRow;horizontal=0;startSize=0;swimlaneHead=0;swimlaneBody=0;fillColor=none;collapsible=0;dropTarget=0;points=[[0,0.5],[1,0.5]];portConstraint=eastwest;top=0;left=0;right=0;bottom=1;opacity=80;" vertex="1" parent="wPyV7EjvyFOrCt24FmBM-142">
          <mxGeometry y="30" width="180" height="30" as="geometry" />
        </mxCell>
        <mxCell id="wPyV7EjvyFOrCt24FmBM-144" value="PK" style="shape=partialRectangle;connectable=0;fillColor=none;top=0;left=0;bottom=0;right=0;fontStyle=1;overflow=hidden;whiteSpace=wrap;html=1;opacity=80;" vertex="1" parent="wPyV7EjvyFOrCt24FmBM-143">
          <mxGeometry width="30" height="30" as="geometry">
            <mxRectangle width="30" height="30" as="alternateBounds" />
          </mxGeometry>
        </mxCell>
        <mxCell id="wPyV7EjvyFOrCt24FmBM-145" value="&lt;strong&gt;CategoryID&lt;/strong&gt;" style="shape=partialRectangle;connectable=0;fillColor=none;top=0;left=0;bottom=0;right=0;align=left;spacingLeft=6;fontStyle=5;overflow=hidden;whiteSpace=wrap;html=1;opacity=80;" vertex="1" parent="wPyV7EjvyFOrCt24FmBM-143">
          <mxGeometry x="30" width="150" height="30" as="geometry">
            <mxRectangle width="150" height="30" as="alternateBounds" />
          </mxGeometry>
        </mxCell>
        <mxCell id="wPyV7EjvyFOrCt24FmBM-146" value="" style="shape=tableRow;horizontal=0;startSize=0;swimlaneHead=0;swimlaneBody=0;fillColor=none;collapsible=0;dropTarget=0;points=[[0,0.5],[1,0.5]];portConstraint=eastwest;top=0;left=0;right=0;bottom=0;opacity=80;" vertex="1" parent="wPyV7EjvyFOrCt24FmBM-142">
          <mxGeometry y="60" width="180" height="30" as="geometry" />
        </mxCell>
        <mxCell id="wPyV7EjvyFOrCt24FmBM-147" value="" style="shape=partialRectangle;connectable=0;fillColor=none;top=0;left=0;bottom=0;right=0;editable=1;overflow=hidden;whiteSpace=wrap;html=1;opacity=80;" vertex="1" parent="wPyV7EjvyFOrCt24FmBM-146">
          <mxGeometry width="30" height="30" as="geometry">
            <mxRectangle width="30" height="30" as="alternateBounds" />
          </mxGeometry>
        </mxCell>
        <mxCell id="wPyV7EjvyFOrCt24FmBM-148" value="&lt;b&gt;Title&lt;/b&gt;" style="shape=partialRectangle;connectable=0;fillColor=none;top=0;left=0;bottom=0;right=0;align=left;spacingLeft=6;overflow=hidden;whiteSpace=wrap;html=1;opacity=80;" vertex="1" parent="wPyV7EjvyFOrCt24FmBM-146">
          <mxGeometry x="30" width="150" height="30" as="geometry">
            <mxRectangle width="150" height="30" as="alternateBounds" />
          </mxGeometry>
        </mxCell>
        <mxCell id="wPyV7EjvyFOrCt24FmBM-149" value="" style="shape=tableRow;horizontal=0;startSize=0;swimlaneHead=0;swimlaneBody=0;fillColor=none;collapsible=0;dropTarget=0;points=[[0,0.5],[1,0.5]];portConstraint=eastwest;top=0;left=0;right=0;bottom=0;opacity=80;" vertex="1" parent="wPyV7EjvyFOrCt24FmBM-142">
          <mxGeometry y="90" width="180" height="30" as="geometry" />
        </mxCell>
        <mxCell id="wPyV7EjvyFOrCt24FmBM-150" value="" style="shape=partialRectangle;connectable=0;fillColor=none;top=0;left=0;bottom=0;right=0;editable=1;overflow=hidden;whiteSpace=wrap;html=1;opacity=80;" vertex="1" parent="wPyV7EjvyFOrCt24FmBM-149">
          <mxGeometry width="30" height="30" as="geometry">
            <mxRectangle width="30" height="30" as="alternateBounds" />
          </mxGeometry>
        </mxCell>
        <mxCell id="wPyV7EjvyFOrCt24FmBM-151" value="&lt;b&gt;Description&lt;/b&gt;" style="shape=partialRectangle;connectable=0;fillColor=none;top=0;left=0;bottom=0;right=0;align=left;spacingLeft=6;overflow=hidden;whiteSpace=wrap;html=1;opacity=80;" vertex="1" parent="wPyV7EjvyFOrCt24FmBM-149">
          <mxGeometry x="30" width="150" height="30" as="geometry">
            <mxRectangle width="150" height="30" as="alternateBounds" />
          </mxGeometry>
        </mxCell>
        <mxCell id="wPyV7EjvyFOrCt24FmBM-156" value="" style="group;opacity=80;" vertex="1" connectable="0" parent="1">
          <mxGeometry x="630" y="420" width="180" height="175" as="geometry" />
        </mxCell>
        <mxCell id="wPyV7EjvyFOrCt24FmBM-157" value="DimensionProducts" style="shape=table;startSize=30;container=1;collapsible=1;childLayout=tableLayout;fixedRows=1;rowLines=0;fontStyle=1;align=center;resizeLast=1;html=1;opacity=80;" vertex="1" parent="wPyV7EjvyFOrCt24FmBM-156">
          <mxGeometry width="180" height="175" as="geometry" />
        </mxCell>
        <mxCell id="wPyV7EjvyFOrCt24FmBM-158" value="" style="shape=tableRow;horizontal=0;startSize=0;swimlaneHead=0;swimlaneBody=0;fillColor=none;collapsible=0;dropTarget=0;points=[[0,0.5],[1,0.5]];portConstraint=eastwest;top=0;left=0;right=0;bottom=1;opacity=80;" vertex="1" parent="wPyV7EjvyFOrCt24FmBM-157">
          <mxGeometry y="30" width="180" height="30" as="geometry" />
        </mxCell>
        <mxCell id="wPyV7EjvyFOrCt24FmBM-159" value="PK" style="shape=partialRectangle;connectable=0;fillColor=none;top=0;left=0;bottom=0;right=0;fontStyle=1;overflow=hidden;whiteSpace=wrap;html=1;opacity=80;" vertex="1" parent="wPyV7EjvyFOrCt24FmBM-158">
          <mxGeometry width="30" height="30" as="geometry">
            <mxRectangle width="30" height="30" as="alternateBounds" />
          </mxGeometry>
        </mxCell>
        <mxCell id="wPyV7EjvyFOrCt24FmBM-160" value="&lt;strong&gt;ProductID&lt;/strong&gt;" style="shape=partialRectangle;connectable=0;fillColor=none;top=0;left=0;bottom=0;right=0;align=left;spacingLeft=6;fontStyle=5;overflow=hidden;whiteSpace=wrap;html=1;opacity=80;" vertex="1" parent="wPyV7EjvyFOrCt24FmBM-158">
          <mxGeometry x="30" width="150" height="30" as="geometry">
            <mxRectangle width="150" height="30" as="alternateBounds" />
          </mxGeometry>
        </mxCell>
        <mxCell id="wPyV7EjvyFOrCt24FmBM-161" value="" style="shape=tableRow;horizontal=0;startSize=0;swimlaneHead=0;swimlaneBody=0;fillColor=none;collapsible=0;dropTarget=0;points=[[0,0.5],[1,0.5]];portConstraint=eastwest;top=0;left=0;right=0;bottom=0;opacity=80;" vertex="1" parent="wPyV7EjvyFOrCt24FmBM-157">
          <mxGeometry y="60" width="180" height="30" as="geometry" />
        </mxCell>
        <mxCell id="wPyV7EjvyFOrCt24FmBM-162" value="" style="shape=partialRectangle;connectable=0;fillColor=none;top=0;left=0;bottom=0;right=0;editable=1;overflow=hidden;whiteSpace=wrap;html=1;opacity=80;" vertex="1" parent="wPyV7EjvyFOrCt24FmBM-161">
          <mxGeometry width="30" height="30" as="geometry">
            <mxRectangle width="30" height="30" as="alternateBounds" />
          </mxGeometry>
        </mxCell>
        <mxCell id="wPyV7EjvyFOrCt24FmBM-163" value="&lt;b&gt;Name&lt;/b&gt;" style="shape=partialRectangle;connectable=0;fillColor=none;top=0;left=0;bottom=0;right=0;align=left;spacingLeft=6;overflow=hidden;whiteSpace=wrap;html=1;opacity=80;" vertex="1" parent="wPyV7EjvyFOrCt24FmBM-161">
          <mxGeometry x="30" width="150" height="30" as="geometry">
            <mxRectangle width="150" height="30" as="alternateBounds" />
          </mxGeometry>
        </mxCell>
        <mxCell id="wPyV7EjvyFOrCt24FmBM-164" value="" style="shape=tableRow;horizontal=0;startSize=0;swimlaneHead=0;swimlaneBody=0;fillColor=none;collapsible=0;dropTarget=0;points=[[0,0.5],[1,0.5]];portConstraint=eastwest;top=0;left=0;right=0;bottom=0;opacity=80;" vertex="1" parent="wPyV7EjvyFOrCt24FmBM-157">
          <mxGeometry y="90" width="180" height="30" as="geometry" />
        </mxCell>
        <mxCell id="wPyV7EjvyFOrCt24FmBM-165" value="" style="shape=partialRectangle;connectable=0;fillColor=none;top=0;left=0;bottom=0;right=0;editable=1;overflow=hidden;whiteSpace=wrap;html=1;opacity=80;" vertex="1" parent="wPyV7EjvyFOrCt24FmBM-164">
          <mxGeometry width="30" height="30" as="geometry">
            <mxRectangle width="30" height="30" as="alternateBounds" />
          </mxGeometry>
        </mxCell>
        <mxCell id="wPyV7EjvyFOrCt24FmBM-166" value="&lt;strong&gt;ProductType&lt;/strong&gt;" style="shape=partialRectangle;connectable=0;fillColor=none;top=0;left=0;bottom=0;right=0;align=left;spacingLeft=6;overflow=hidden;whiteSpace=wrap;html=1;opacity=80;" vertex="1" parent="wPyV7EjvyFOrCt24FmBM-164">
          <mxGeometry x="30" width="150" height="30" as="geometry">
            <mxRectangle width="150" height="30" as="alternateBounds" />
          </mxGeometry>
        </mxCell>
        <mxCell id="wPyV7EjvyFOrCt24FmBM-167" value="" style="shape=tableRow;horizontal=0;startSize=0;swimlaneHead=0;swimlaneBody=0;fillColor=none;collapsible=0;dropTarget=0;points=[[0,0.5],[1,0.5]];portConstraint=eastwest;top=0;left=0;right=0;bottom=0;opacity=80;" vertex="1" parent="wPyV7EjvyFOrCt24FmBM-157">
          <mxGeometry y="120" width="180" height="30" as="geometry" />
        </mxCell>
        <mxCell id="wPyV7EjvyFOrCt24FmBM-168" value="" style="shape=partialRectangle;connectable=0;fillColor=none;top=0;left=0;bottom=0;right=0;editable=1;overflow=hidden;whiteSpace=wrap;html=1;opacity=80;" vertex="1" parent="wPyV7EjvyFOrCt24FmBM-167">
          <mxGeometry width="30" height="30" as="geometry">
            <mxRectangle width="30" height="30" as="alternateBounds" />
          </mxGeometry>
        </mxCell>
        <mxCell id="wPyV7EjvyFOrCt24FmBM-169" value="&lt;b&gt;ProductSet&lt;/b&gt;" style="shape=partialRectangle;connectable=0;fillColor=none;top=0;left=0;bottom=0;right=0;align=left;spacingLeft=6;overflow=hidden;whiteSpace=wrap;html=1;opacity=80;" vertex="1" parent="wPyV7EjvyFOrCt24FmBM-167">
          <mxGeometry x="30" width="150" height="30" as="geometry">
            <mxRectangle width="150" height="30" as="alternateBounds" />
          </mxGeometry>
        </mxCell>
        <mxCell id="wPyV7EjvyFOrCt24FmBM-171" value="" style="endArrow=none;html=1;rounded=0;exitX=0.167;exitY=0.002;exitDx=0;exitDy=0;exitPerimeter=0;opacity=80;" edge="1" parent="wPyV7EjvyFOrCt24FmBM-156">
          <mxGeometry relative="1" as="geometry">
            <mxPoint x="30" y="85" as="sourcePoint" />
            <mxPoint x="30" y="175" as="targetPoint" />
          </mxGeometry>
        </mxCell>
        <mxCell id="wPyV7EjvyFOrCt24FmBM-172" value="&lt;b&gt;Price&lt;/b&gt;" style="shape=partialRectangle;connectable=0;fillColor=none;top=0;left=0;bottom=0;right=0;align=left;spacingLeft=6;overflow=hidden;whiteSpace=wrap;html=1;opacity=80;" vertex="1" parent="wPyV7EjvyFOrCt24FmBM-156">
          <mxGeometry x="30" y="145" width="150" height="30" as="geometry">
            <mxRectangle width="150" height="30" as="alternateBounds" />
          </mxGeometry>
        </mxCell>
        <mxCell id="wPyV7EjvyFOrCt24FmBM-183" style="edgeStyle=orthogonalEdgeStyle;rounded=0;orthogonalLoop=1;jettySize=auto;html=1;entryX=0;entryY=0.5;entryDx=0;entryDy=0;startArrow=classic;startFill=1;endArrow=none;endFill=0;" edge="1" parent="1" source="wPyV7EjvyFOrCt24FmBM-6" target="wPyV7EjvyFOrCt24FmBM-112">
          <mxGeometry relative="1" as="geometry" />
        </mxCell>
        <mxCell id="wPyV7EjvyFOrCt24FmBM-186" style="edgeStyle=orthogonalEdgeStyle;rounded=0;orthogonalLoop=1;jettySize=auto;html=1;" edge="1" parent="1" source="wPyV7EjvyFOrCt24FmBM-125" target="wPyV7EjvyFOrCt24FmBM-71">
          <mxGeometry relative="1" as="geometry" />
        </mxCell>
        <mxCell id="wPyV7EjvyFOrCt24FmBM-187" style="edgeStyle=orthogonalEdgeStyle;rounded=0;orthogonalLoop=1;jettySize=auto;html=1;startArrow=classic;startFill=1;endArrow=none;endFill=0;" edge="1" parent="1" source="wPyV7EjvyFOrCt24FmBM-131" target="wPyV7EjvyFOrCt24FmBM-143">
          <mxGeometry relative="1" as="geometry" />
        </mxCell>
        <mxCell id="wPyV7EjvyFOrCt24FmBM-189" style="edgeStyle=orthogonalEdgeStyle;rounded=0;orthogonalLoop=1;jettySize=auto;html=1;" edge="1" parent="1" source="wPyV7EjvyFOrCt24FmBM-3" target="wPyV7EjvyFOrCt24FmBM-68">
          <mxGeometry relative="1" as="geometry">
            <Array as="points">
              <mxPoint x="20" y="165" />
              <mxPoint x="20" y="415" />
            </Array>
          </mxGeometry>
        </mxCell>
        <mxCell id="wPyV7EjvyFOrCt24FmBM-190" style="edgeStyle=orthogonalEdgeStyle;rounded=0;orthogonalLoop=1;jettySize=auto;html=1;" edge="1" parent="1" source="wPyV7EjvyFOrCt24FmBM-62" target="wPyV7EjvyFOrCt24FmBM-9">
          <mxGeometry relative="1" as="geometry" />
        </mxCell>
        <mxCell id="wPyV7EjvyFOrCt24FmBM-191" style="edgeStyle=orthogonalEdgeStyle;rounded=0;orthogonalLoop=1;jettySize=auto;html=1;exitX=0.998;exitY=0.298;exitDx=0;exitDy=0;exitPerimeter=0;" edge="1" parent="1" source="wPyV7EjvyFOrCt24FmBM-112">
          <mxGeometry relative="1" as="geometry">
            <mxPoint x="660" y="195" as="targetPoint" />
            <Array as="points">
              <mxPoint x="580" y="149" />
              <mxPoint x="580" y="195" />
            </Array>
          </mxGeometry>
        </mxCell>
        <mxCell id="wPyV7EjvyFOrCt24FmBM-193" style="edgeStyle=orthogonalEdgeStyle;rounded=0;orthogonalLoop=1;jettySize=auto;html=1;entryX=1;entryY=0.5;entryDx=0;entryDy=0;exitX=1.006;exitY=0.711;exitDx=0;exitDy=0;exitPerimeter=0;" edge="1" parent="1" source="wPyV7EjvyFOrCt24FmBM-112" target="wPyV7EjvyFOrCt24FmBM-65">
          <mxGeometry relative="1" as="geometry" />
        </mxCell>
        <mxCell id="wPyV7EjvyFOrCt24FmBM-194" style="edgeStyle=orthogonalEdgeStyle;rounded=0;orthogonalLoop=1;jettySize=auto;html=1;entryX=0;entryY=0.5;entryDx=0;entryDy=0;" edge="1" parent="1" source="wPyV7EjvyFOrCt24FmBM-158" target="wPyV7EjvyFOrCt24FmBM-107">
          <mxGeometry relative="1" as="geometry" />
        </mxCell>
      </root>
    </mxGraphModel>
  </diagram>
</mxfile>
